HIERARCHY
ROOT Hips
{
	OFFSET 0.000000 0.000000 0.000000
	CHANNELS 6 Xposition Yposition Zposition Xrotation Yrotation Zrotation
	JOINT LeftUpLeg_virtual
	{
		OFFSET 0.000000 0.000000 0.000000
		CHANNELS 3 Xrotation Yrotation Zrotation
		JOINT LeftUpLeg
		{
			OFFSET 10.205400 -3.823500 0.155100
			CHANNELS 3 Xrotation Yrotation Zrotation
			JOINT LeftLeg
			{
				OFFSET 0.708757 -12.982077 0.567790
				CHANNELS 3 Xrotation Yrotation Zrotation
				JOINT LeftFoot
				{
					OFFSET -0.708756 -10.717838 -2.184338
					CHANNELS 3 Xrotation Yrotation Zrotation
					JOINT LeftToeBase
					{
						OFFSET 0.108149 -7.191104 7.560241
						CHANNELS 3 Xrotation Yrotation Zrotation
						JOINT LeftToe_End
						{
							OFFSET 0.070230 0.081724 4.490308
							CHANNELS 3 Xrotation Yrotation Zrotation
							End Site
							{
								OFFSET 0 0 0
							}
						}
					}
				}
			}
		}
	}
	JOINT RightUpLeg_virtual
	{
		OFFSET 0.000000 0.000000 0.000000
		CHANNELS 3 Xrotation Yrotation Zrotation
		JOINT RightUpLeg
		{
			OFFSET -10.205400 -3.823500 0.005500
			CHANNELS 3 Xrotation Yrotation Zrotation
			JOINT RightLeg
			{
				OFFSET -0.708756 -12.982134 0.610632
				CHANNELS 3 Xrotation Yrotation Zrotation
				JOINT RightFoot
				{
					OFFSET 0.708754 -10.717769 -1.945823
					CHANNELS 3 Xrotation Yrotation Zrotation
					JOINT RightToeBase
					{
						OFFSET -0.108140 -7.191069 7.372968
						CHANNELS 3 Xrotation Yrotation Zrotation
						JOINT RightToe_End
						{
							OFFSET -0.070227 0.081735 4.479403
							CHANNELS 3 Xrotation Yrotation Zrotation
							End Site
							{
								OFFSET 0 0 0
							}
						}
					}
				}
			}
		}
	}
	JOINT Spine_virtual
	{
		OFFSET 0.000000 0.000000 0.000000
		CHANNELS 3 Xrotation Yrotation Zrotation
		JOINT Spine
		{
			OFFSET 0.000000 6.876099 0.125700
			CHANNELS 3 Xrotation Yrotation Zrotation
			JOINT Spine1
			{
				OFFSET 0.000000 5.730043 0.104720
				CHANNELS 3 Xrotation Yrotation Zrotation
				JOINT Spine1_split
				{
					OFFSET 0.000000 5.730043 0.104720
					CHANNELS 3 Xrotation Yrotation Zrotation
					JOINT Spine2
					{
						OFFSET 0.000000 5.730043 0.104720
						CHANNELS 3 Xrotation Yrotation Zrotation
						JOINT Neck_virtual
						{
							OFFSET 0.000000 0.000000 0.000000
							CHANNELS 3 Xrotation Yrotation Zrotation
							JOINT Neck
							{
								OFFSET 0.000000 10.314075 0.188496
								CHANNELS 3 Xrotation Yrotation Zrotation
								JOINT Head
								{
									OFFSET 0.000000 7.643700 -2.377400
									CHANNELS 3 Xrotation Yrotation Zrotation
									JOINT HeadTop_End
									{
										OFFSET 0.000000 43.788605 -13.619600
										CHANNELS 3 Xrotation Yrotation Zrotation
										End Site
										{
											OFFSET 0 0 0
										}
									}
								}
							}
						}
						JOINT LeftShoulder_virtual
						{
							OFFSET 0.000000 0.000000 0.000000
							CHANNELS 3 Xrotation Yrotation Zrotation
							JOINT LeftShoulder
							{
								OFFSET 2.196100 4.412489 0.087492
								CHANNELS 3 Xrotation Yrotation Zrotation
								JOINT LeftShoulder_split
								{
									OFFSET 2.196100 4.412489 0.087492
									CHANNELS 3 Xrotation Yrotation Zrotation
									JOINT LeftArm
									{
										OFFSET 8.771219 -2.981674 -0.026999
										CHANNELS 3 Xrotation Yrotation Zrotation
										JOINT LeftForeArm
										{
											OFFSET 8.512804 0.000000 -0.000000
											CHANNELS 3 Xrotation Yrotation Zrotation
											JOINT LeftHand
											{
												OFFSET 18.484802 0.000000 -0.000000
												CHANNELS 3 Xrotation Yrotation Zrotation
												End Site
												{
													OFFSET 0 0 0
												}
											}
										}
									}
								}
							}
						}
						JOINT RightShoulder_virtual
						{
							OFFSET 0.000000 0.000000 0.000000
							CHANNELS 3 Xrotation Yrotation Zrotation
							JOINT RightShoulder
							{
								OFFSET -2.196100 4.412496 0.070690
								CHANNELS 3 Xrotation Yrotation Zrotation
								JOINT RightShoulder_split
								{
									OFFSET -2.196100 4.412496 0.070690
									CHANNELS 3 Xrotation Yrotation Zrotation
									JOINT RightArm
									{
										OFFSET -8.771282 -2.981682 -0.094208
										CHANNELS 3 Xrotation Yrotation Zrotation
										JOINT RightForeArm
										{
											OFFSET -8.494598 0.000000 0.000000
											CHANNELS 3 Xrotation Yrotation Zrotation
											JOINT RightHand
											{
												OFFSET -18.483803 0.000000 0.000001
												CHANNELS 3 Xrotation Yrotation Zrotation
												End Site
												{
													OFFSET 0 0 0
												}
											}
										}
									}
								}
							}
						}
					}
				}
			}
		}
	}
}
MOTION
Frames: 5
Frame Time: 0.03333333
0.123605 32.792610 -0.231652 0.000000 0.000000 0.000000 -19.770841 -82.292018 -20.853763 -20.532295 12.656148 14.081896 38.774287 -4.527689 4.718935 -16.447444 3.261375 -10.107603 -0.000050 0.000006 -0.000006 0.000000 0.000000 0.000000 -19.770841 -82.292018 -20.853763 -13.348437 -21.820436 -13.308420 31.398728 10.078802 -9.314031 -16.597075 -3.964754 14.185189 -0.001929 -0.000020 -0.000002 0.000000 0.000000 0.000000 -19.770841 -82.292018 -20.853763 2.271989 0.096407 -0.061240 4.588851 0.048057 1.587649 0.000000 0.000000 0.000000 0.000000 0.000000 0.000000 4.566500 0.058996 1.631779 -6.449452 9.163147 -4.228991 1.306331 37.856662 -3.127864 0.000000 0.000000 0.000000 4.566500 0.058996 1.631779 -0.232473 4.637865 -1.359657 0.000000 0.000000 0.000000 25.122138 -77.231244 -42.206310 0.000000 -14.145796 -0.000004 0.000000 0.000000 0.000000 4.566500 0.058996 1.631779 1.612998 4.329169 7.043632 0.000000 0.000000 0.000000 8.595144 25.593769 60.579516 -0.000016 32.803674 -0.000002 0.000000 0.000000 0.000000 
0.120618 32.797977 -0.234632 0.000000 0.000000 0.000000 -20.003201 -82.273891 -21.083078 -20.468163 12.670496 14.062084 38.718041 -4.520304 4.738773 -16.419122 3.264566 -10.116857 -0.000036 -0.000002 -0.000002 0.000000 0.000000 0.000000 -20.003201 -82.273891 -21.083078 -13.261573 -21.844991 -13.297559 31.323917 10.091659 -9.307478 -16.573678 -3.965887 14.184205 -0.001980 -0.000010 0.000004 0.000000 0.000000 0.000000 -20.003201 -82.273891 -21.083078 2.260300 0.075115 -0.052228 4.568350 0.010029 1.625758 0.000000 0.000000 0.000000 0.000000 0.000000 0.000000 4.545689 0.020621 1.669544 -6.358688 9.200897 -4.344189 1.308286 37.902560 -3.127767 0.000000 0.000000 0.000000 4.545689 0.020621 1.669544 -0.236515 4.731575 -1.616330 0.000000 0.000000 0.000000 28.224882 -77.569079 -39.068286 -0.000009 -14.159484 -0.000012 0.000000 0.000000 0.000000 4.545689 0.020621 1.669544 1.625862 4.410173 6.848804 0.000000 0.000000 0.000000 8.546710 25.709175 60.700998 0.000002 32.649670 0.000009 0.000000 0.000000 0.000000 
0.118479 32.803368 -0.236042 0.000000 0.000000 0.000000 -20.188951 -82.249971 -21.282128 -20.413632 12.624698 14.062794 38.682213 -4.501750 4.735122 -16.401786 3.265875 -10.129642 -0.000058 0.000018 0.000002 0.000000 0.000000 0.000000 -20.188951 -82.249971 -21.282128 -13.148845 -21.853523 -13.276673 31.204891 10.087500 -9.254062 -16.527886 -3.961322 14.169950 -0.002029 -0.000017 0.000004 0.000000 0.000000 0.000000 -20.188951 -82.249971 -21.282128 2.244755 0.047004 -0.023542 4.538628 -0.042548 1.674178 0.000000 0.000000 0.000000 0.000000 0.000000 0.000000 4.515266 -0.031862 1.717976 -6.262548 9.243660 -4.465037 1.306200 37.967761 -3.122503 0.000000 0.000000 0.000000 4.515266 -0.031862 1.717976 -0.241922 4.857626 -1.946157 0.000000 0.000000 0.000000 31.985947 -77.874067 -35.281414 0.000002 -14.200997 0.000013 0.000000 0.000000 0.000000 4.515266 -0.031862 1.717976 1.642509 4.513233 6.629192 0.000000 0.000000 0.000000 8.509106 25.847485 60.828476 -0.000000 32.462185 0.000007 0.000000 0.000000 0.000000 
0.120231 32.808437 -0.237810 0.000000 0.000000 0.000000 -20.218173 -82.219386 -21.331406 -20.394697 12.533024 14.052540 38.662825 -4.454824 4.743845 -16.375995 3.268395 -10.158785 -0.000002 -0.000002 -0.000002 0.000000 0.000000 0.000000 -20.218173 -82.219386 -21.331406 -13.052118 -21.864955 -13.246865 31.079417 10.071909 -9.201680 -16.472746 -3.959342 14.158338 -0.002101 0.000005 0.000006 0.000000 0.000000 0.000000 -20.218173 -82.219386 -21.331406 2.236281 0.023025 0.022757 4.519639 -0.089368 1.726253 0.000000 0.000000 0.000000 0.000000 0.000000 0.000000 4.495333 -0.077921 1.770642 -6.186662 9.287375 -4.580750 1.286598 38.041715 -3.116077 0.000000 0.000000 0.000000 4.495333 -0.077921 1.770642 -0.246495 4.979590 -2.258023 0.000000 0.000000 0.000000 35.894833 -78.150956 -31.336870 -0.000002 -14.217753 -0.000001 0.000000 0.000000 0.000000 4.495333 -0.077921 1.770642 1.659762 4.618653 6.455643 0.000000 0.000000 0.000000 8.485935 25.881267 60.941099 0.000008 32.359575 -0.000005 0.000000 0.000000 0.000000 
0.132564 32.811089 -0.244351 0.000000 0.000000 0.000000 -20.025452 -82.210206 -21.155415 -20.446694 12.447706 14.020351 38.667374 -4.357763 4.803925 -16.331997 3.279441 -10.225515 -0.000055 0.000008 -0.000002 0.000000 0.000000 0.000000 -20.025452 -82.210206 -21.155415 -13.053392 -21.845885 -13.181594 31.035533 10.021197 -9.232718 -16.427604 -3.972003 14.175346 -0.002258 0.000012 0.000003 0.000000 0.000000 0.000000 -20.025452 -82.210206 -21.155415 2.247982 0.021479 0.069459 4.537760 -0.095028 1.771960 0.000000 0.000000 0.000000 0.000000 0.000000 0.000000 4.512694 -0.082143 1.817279 -6.156677 9.325411 -4.676050 1.213319 38.112626 -3.117114 0.000000 0.000000 0.000000 4.512694 -0.082143 1.817279 -0.248987 5.035892 -2.392452 0.000000 0.000000 0.000000 39.218994 -78.480752 -27.926374 0.000002 -14.133333 -0.000004 0.000000 0.000000 0.000000 4.512694 -0.082143 1.817279 1.673025 4.701755 6.407449 0.000000 0.000000 0.000000 8.466745 25.643985 61.012523 -0.000018 32.534295 0.000012 0.000000 0.000000 0.000000 
